<svg width="150" height="28" viewBox="0 0 150 28" fill="none" xmlns="http://www.w3.org/2000/svg">
<path d="M5.598 22.18C4.626 22.18 3.684 22.042 2.772 21.766C1.872 21.49 1.158 21.124 0.63 20.668L1.44 18.85C1.956 19.258 2.586 19.594 3.33 19.858C4.086 20.11 4.842 20.236 5.598 20.236C6.534 20.236 7.23 20.086 7.686 19.786C8.154 19.486 8.388 19.09 8.388 18.598C8.388 18.238 8.256 17.944 7.992 17.716C7.74 17.476 7.416 17.29 7.02 17.158C6.624 17.026 6.084 16.876 5.4 16.708C4.44 16.48 3.66 16.252 3.06 16.024C2.472 15.796 1.962 15.442 1.53 14.962C1.11 14.47 0.9 13.81 0.9 12.982C0.9 12.286 1.086 11.656 1.458 11.092C1.842 10.516 2.412 10.06 3.168 9.724C3.936 9.388 4.872 9.22 5.976 9.22C6.744 9.22 7.5 9.316 8.244 9.508C8.988 9.7 9.63 9.976 10.17 10.336L9.432 12.154C8.88 11.83 8.304 11.584 7.704 11.416C7.104 11.248 6.522 11.164 5.958 11.164C5.034 11.164 4.344 11.32 3.888 11.632C3.444 11.944 3.222 12.358 3.222 12.874C3.222 13.234 3.348 13.528 3.6 13.756C3.864 13.984 4.194 14.164 4.59 14.296C4.986 14.428 5.526 14.578 6.21 14.746C7.146 14.962 7.914 15.19 8.514 15.43C9.114 15.658 9.624 16.012 10.044 16.492C10.476 16.972 10.692 17.62 10.692 18.436C10.692 19.132 10.5 19.762 10.116 20.326C9.744 20.89 9.174 21.34 8.406 21.676C7.638 22.012 6.702 22.18 5.598 22.18ZM13.0123 9.4H15.3523V22H13.0123V9.4ZM23.9444 9.4C25.0364 9.4 25.9844 9.58 26.7884 9.94C27.6044 10.3 28.2284 10.816 28.6604 11.488C29.0924 12.16 29.3084 12.958 29.3084 13.882C29.3084 14.794 29.0924 15.592 28.6604 16.276C28.2284 16.948 27.6044 17.464 26.7884 17.824C25.9844 18.184 25.0364 18.364 23.9444 18.364H21.1004V22H18.7604V9.4H23.9444ZM23.8364 16.384C24.8564 16.384 25.6304 16.168 26.1584 15.736C26.6864 15.304 26.9504 14.686 26.9504 13.882C26.9504 13.078 26.6864 12.46 26.1584 12.028C25.6304 11.596 24.8564 11.38 23.8364 11.38H21.1004V16.384H23.8364ZM41.0951 20.038V22H31.6451V9.4H40.8431V11.362H33.9851V14.638H40.0691V16.564H33.9851V20.038H41.0951ZM52.6317 15.448C53.3277 15.676 53.8797 16.06 54.2877 16.6C54.6957 17.128 54.8997 17.788 54.8997 18.58C54.8997 19.672 54.4797 20.518 53.6397 21.118C52.7997 21.706 51.5757 22 49.9677 22H43.7037V9.4H49.6077C51.0957 9.4 52.2417 9.694 53.0457 10.282C53.8497 10.858 54.2517 11.656 54.2517 12.676C54.2517 13.3 54.1077 13.852 53.8197 14.332C53.5317 14.812 53.1357 15.184 52.6317 15.448ZM46.0437 11.236V14.71H49.3557C50.1717 14.71 50.7957 14.566 51.2277 14.278C51.6717 13.978 51.8937 13.546 51.8937 12.982C51.8937 12.406 51.6717 11.974 51.2277 11.686C50.7957 11.386 50.1717 11.236 49.3557 11.236H46.0437ZM49.8237 20.164C51.6357 20.164 52.5417 19.558 52.5417 18.346C52.5417 17.134 51.6357 16.528 49.8237 16.528H46.0437V20.164H49.8237ZM65.5691 19.084H59.2691L58.0271 22H55.6151L61.2851 9.4H63.5891L69.2771 22H66.8291L65.5691 19.084ZM64.7951 17.248L62.4191 11.74L60.0611 17.248H64.7951Z" fill="#4D83FF"/>
<path d="M70.1775 16.06H75.1275V17.932H70.1775V16.06ZM86.8953 12.388V22H84.7533V20.776C84.3933 21.208 83.9433 21.544 83.4033 21.784C82.8633 22.012 82.2813 22.126 81.6573 22.126C80.3733 22.126 79.3593 21.772 78.6153 21.064C77.8833 20.344 77.5173 19.282 77.5173 17.878V12.388H79.7673V17.572C79.7673 18.436 79.9593 19.084 80.3433 19.516C80.7393 19.936 81.2973 20.146 82.0173 20.146C82.8213 20.146 83.4573 19.9 83.9253 19.408C84.4053 18.904 84.6453 18.184 84.6453 17.248V12.388H86.8953ZM101.973 12.28C103.185 12.28 104.145 12.634 104.853 13.342C105.561 14.038 105.915 15.088 105.915 16.492V22H103.665V16.78C103.665 15.94 103.479 15.31 103.107 14.89C102.735 14.458 102.201 14.242 101.505 14.242C100.749 14.242 100.143 14.494 99.6872 14.998C99.2312 15.49 99.0032 16.198 99.0032 17.122V22H96.7532V16.78C96.7532 15.94 96.5672 15.31 96.1952 14.89C95.8232 14.458 95.2892 14.242 94.5932 14.242C93.8252 14.242 93.2132 14.488 92.7572 14.98C92.3132 15.472 92.0912 16.186 92.0912 17.122V22H89.8412V12.388H91.9832V13.612C92.3432 13.18 92.7932 12.85 93.3332 12.622C93.8732 12.394 94.4732 12.28 95.1332 12.28C95.8532 12.28 96.4892 12.418 97.0412 12.694C97.6052 12.958 98.0492 13.354 98.3732 13.882C98.7692 13.378 99.2792 12.988 99.9032 12.712C100.527 12.424 101.217 12.28 101.973 12.28ZM112.714 17.878L111.04 19.462V22H108.79V8.644H111.04V16.708L115.702 12.388H118.402L114.388 16.42L118.78 22H116.044L112.714 17.878ZM132.278 12.28C133.49 12.28 134.45 12.634 135.158 13.342C135.866 14.038 136.22 15.088 136.22 16.492V22H133.97V16.78C133.97 15.94 133.784 15.31 133.412 14.89C133.04 14.458 132.506 14.242 131.81 14.242C131.054 14.242 130.448 14.494 129.992 14.998C129.536 15.49 129.308 16.198 129.308 17.122V22H127.058V16.78C127.058 15.94 126.872 15.31 126.5 14.89C126.128 14.458 125.594 14.242 124.898 14.242C124.13 14.242 123.518 14.488 123.062 14.98C122.618 15.472 122.396 16.186 122.396 17.122V22H120.146V12.388H122.288V13.612C122.648 13.18 123.098 12.85 123.638 12.622C124.178 12.394 124.778 12.28 125.438 12.28C126.158 12.28 126.794 12.418 127.346 12.694C127.91 12.958 128.354 13.354 128.678 13.882C129.074 13.378 129.584 12.988 130.208 12.712C130.832 12.424 131.522 12.28 132.278 12.28Z" fill="black"/>
<path d="M137.676 3.75323C137.637 4.13065 137.479 4.67293 137.229 5.2958C136.982 5.91008 136.658 6.57074 136.311 7.17521C135.964 7.78237 135.602 8.31666 135.284 8.68625C135.123 8.87234 134.988 9.00067 134.883 9.0761C134.861 9.09135 134.844 9.10286 134.829 9.11151C134.817 9.10013 134.802 9.08528 134.784 9.06606C134.696 8.97104 134.589 8.81803 134.469 8.60349C134.232 8.17743 133.985 7.58137 133.766 6.91664C133.549 6.25487 133.364 5.54258 133.246 4.89117C133.126 4.23066 133.08 3.66768 133.118 3.29026C133.28 1.70089 134.486 0.658655 135.676 0.779461C136.865 0.900267 137.837 2.16386 137.676 3.75323Z" stroke="#4D83FF"/>
<path d="M145.317 16.4819C144.938 16.4755 144.384 16.3637 143.743 16.1666C143.11 15.9722 142.424 15.7052 141.793 15.411C141.158 15.1154 140.596 14.8003 140.2 14.5142C140.002 14.3701 139.862 14.2456 139.778 14.1473C139.761 14.1274 139.748 14.1106 139.738 14.0969C139.749 14.0836 139.762 14.0673 139.78 14.048C139.867 13.9525 140.011 13.8328 140.214 13.6955C140.619 13.4229 141.192 13.127 141.836 12.853C142.477 12.5803 143.171 12.3366 143.81 12.1637C144.458 11.9884 145.015 11.8954 145.395 11.9018C146.992 11.9288 148.132 13.0433 148.112 14.2384C148.092 15.4335 146.915 16.5089 145.317 16.4819Z" stroke="#4D83FF"/>
<path d="M146.879 7.64536C145.304 9.16953 139.906 11.2038 139.136 10.4084C138.366 9.61311 140.575 4.28391 142.149 2.75975C143.724 1.23558 146.059 1.09368 147.365 2.44281C148.671 3.79193 148.453 6.1212 146.879 7.64536Z" fill="#4D83FF"/>
</svg>
