<svg width="38" height="37" viewBox="0 0 38 37" fill="none" xmlns="http://www.w3.org/2000/svg">
<path d="M12.7332 8.10211C12.6429 8.99094 12.2807 10.212 11.7372 11.5638C11.197 12.907 10.4911 14.3466 9.73682 15.6629C8.98099 16.9819 8.18586 18.1607 7.47119 18.9904C7.11274 19.4065 6.78814 19.7188 6.51148 19.9173C6.21836 20.1277 6.0563 20.1548 6.00048 20.1491C5.94467 20.1435 5.79137 20.0843 5.54655 19.8193C5.31546 19.5691 5.06029 19.198 4.79285 18.7183C4.25963 17.7619 3.71782 16.4472 3.24267 15.0032C2.76851 13.5621 2.36651 12.0099 2.10753 10.5855C1.8469 9.15207 1.73775 7.88309 1.82804 6.99426C2.19732 3.35922 4.99342 0.803015 7.93548 1.1019C10.8775 1.40078 13.1024 4.46707 12.7332 8.10211Z" stroke="#4D83FF"/>
<path d="M28.5337 35.8973C27.6404 35.8822 26.3931 35.6243 25.0004 35.1965C23.6164 34.7715 22.1224 34.1893 20.7473 33.5486C19.3694 32.9066 18.1277 32.2136 17.2408 31.5714C16.7959 31.2493 16.4574 30.9521 16.2363 30.6932C16.002 30.4188 15.9613 30.2596 15.9622 30.2035C15.9632 30.1475 16.0092 29.9897 16.2527 29.7234C16.4824 29.4721 16.8307 29.1866 17.2862 28.8797C18.1943 28.2677 19.4587 27.6171 20.8575 27.022C22.2535 26.4281 23.7663 25.8967 25.1638 25.5187C26.5702 25.1382 27.8255 24.9225 28.7188 24.9376C32.372 24.9993 35.1547 27.5701 35.1048 30.5269C35.0548 33.4837 32.1869 35.959 28.5337 35.8973Z" stroke="#4D83FF"/>
<path d="M31.8899 16.3864C28.5154 19.6531 16.9457 24.0131 15.2955 22.3085C13.6453 20.6038 18.3784 9.18174 21.7529 5.91499C25.1274 2.64823 30.1323 2.3441 32.9315 5.23569C35.7308 8.12728 35.2644 13.1196 31.8899 16.3864Z" fill="#4D83FF"/>
</svg>
